<svg id="Capa_1" enable-background="new 0 0 497.499 497.499" height="512" viewBox="0 0 497.499 497.499" width="512" xmlns="http://www.w3.org/2000/svg"><g><path d="m339.752 106.593c-4.142 0-7.5-3.358-7.5-7.5v-53.47c0-16.885-13.737-30.623-30.623-30.623h-105.754c-16.886 0-30.623 13.737-30.623 30.623v41.471c0 4.142-3.358 7.5-7.5 7.5s-7.5-3.358-7.5-7.5v-41.471c0-25.157 20.466-45.623 45.623-45.623h105.754c25.156 0 45.623 20.466 45.623 45.623v53.47c0 4.142-3.358 7.5-7.5 7.5z" fill="#e1f1f3"/><path d="m453.753 146.769-4.09 45.32-23.59 261.41c-2.25 24.92-23.14 44-48.15 44h-258.34c-25.02 0-45.9-19.08-48.15-44l-27.68-306.73z" fill="#b7cacc"/><path d="m449.663 192.089-23.59 261.41c-2.25 24.92-23.14 44-48.15 44h-190.84c-25.02 0-45.9-19.08-48.15-44l-20.559-227.821c-1.628-18.041 12.58-33.589 30.694-33.589z" fill="#e1f1f3"/><path d="m458.853 146.769h-420.2c-17.61 0-30.42-16.7-25.87-33.71l7.62-28.44c3.14-11.71 13.75-19.85 25.87-19.85h404.96c12.12 0 22.73 8.14 25.86 19.85l7.62 28.44c4.56 17.01-8.25 33.71-25.86 33.71z" fill="#416884"/><path d="m458.853 146.769h-324.2c-17.61 0-30.43-16.7-25.87-33.71l7.62-28.44c3.14-11.71 13.75-19.85 25.87-19.85h308.96c12.12 0 22.73 8.14 25.86 19.85l7.62 28.44c4.56 17.01-8.25 33.71-25.86 33.71z" fill="#4a7398"/><g fill="#75bb61"><g><path d="m262.355 283.192c-3.517 0-6.655-2.486-7.353-6.067-.792-4.066 1.861-8.004 5.927-8.796l30.849-6.012-6.012-30.849c-.792-4.066 1.861-8.004 5.927-8.796 4.069-.791 8.004 1.861 8.796 5.927l7.447 38.21c.381 1.952-.03 3.976-1.142 5.626-1.111 1.65-2.833 2.79-4.785 3.171l-38.21 7.447c-.486.093-.969.139-1.444.139z"/><path d="m181.465 349.266c-3.075 0-5.959-1.906-7.059-4.966-10.299-28.664-3.044-61.096 18.484-82.624 30.802-30.802 80.92-30.802 111.722 0 2.929 2.929 2.929 7.677 0 10.606s-7.678 2.929-10.606 0c-24.953-24.953-65.556-24.953-90.509 0-17.442 17.442-23.32 43.72-14.975 66.946 1.401 3.898-.624 8.194-4.522 9.594-.837.302-1.693.444-2.535.444z"/></g><g><path d="m204.369 412.542c-3.517 0-6.655-2.486-7.353-6.067l-7.447-38.21c-.792-4.065 1.861-8.004 5.927-8.796l38.21-7.447c4.066-.791 8.004 1.861 8.796 5.927s-1.861 8.004-5.927 8.796l-30.848 6.012 6.012 30.849c.792 4.065-1.861 8.004-5.927 8.796-.485.095-.968.14-1.443.14z"/><path d="m248.752 396.499c-20.23 0-40.46-7.7-55.861-23.101-2.929-2.929-2.929-7.677 0-10.606s7.678-2.929 10.606 0c24.953 24.953 65.556 24.953 90.509 0 17.429-17.428 23.283-42.748 15.279-66.078-1.344-3.918.743-8.184 4.661-9.528 3.917-1.343 8.184.743 9.528 4.66 9.877 28.792 2.65 60.041-18.861 81.552-15.401 15.401-35.631 23.101-55.861 23.101z"/></g></g></g></svg>