<svg id="Capa_1" enable-background="new 0 0 511 511" height="512" viewBox="0 0 511 511" width="512" xmlns="http://www.w3.org/2000/svg"><g><circle cx="105" cy="249.25" fill="#ffddce" r="59.75"/><path d="m161.07 324.77c-21.74 23.25-35.07 54.46-35.07 88.73v55l-5 5h-106c-8.28 0-15-6.72-15-15v-45c0-57.9 47.1-105 105-105 20.6 0 39.84 5.97 56.07 16.27z" fill="#55696e"/><circle cx="256" cy="203.5" fill="#d69a8b" r="75"/><path d="m331 203.5c0 41.35-33.65 75-75 75v-150c41.35 0 75 33.65 75 75z" fill="#c28678"/><circle cx="406" cy="249.25" fill="#ffccbd" r="59.75"/><path d="m511 413.5v45c0 8.28-6.72 15-15 15h-105l-5-5v-55c0-34.46-13.48-65.83-35.44-89.12 16.1-10.07 35.1-15.88 55.44-15.88 57.9 0 105 47.1 105 105z" fill="#495959"/><path d="m255.212 278.502c-74.494.428-134.212 61.988-134.212 136.483v58.515c0 8.284 6.716 15 15 15h240c8.284 0 15-6.716 15-15v-60c0-74.702-60.988-135.427-135.788-134.998z" fill="#f47160"/><path d="m391 413.5v60c0 8.284-6.716 15-15 15h-120v-210c74.44 0 135 60.56 135 135z" fill="#fc5832"/><path d="m312.106 26.894c-5.857-5.858-15.355-5.858-21.213 0l-49.393 49.393-20.394-20.393c-5.857-5.858-15.355-5.858-21.213 0s-5.858 15.355 0 21.213l31 31c5.857 5.858 15.355 5.859 21.213 0l60-60c5.858-5.858 5.858-15.355 0-21.213z" fill="#50dbc1"/><path d="m312.11 48.11-56.11 56.11v-42.43l34.89-34.9c5.86-5.85 15.36-5.85 21.22 0 5.85 5.86 5.85 15.36 0 21.22z" fill="#0abf9c"/></g></svg>