<?xml version="1.0" encoding="iso-8859-1"?>
<!-- Generator: Adobe Illustrator 17.1.0, SVG Export Plug-In . SVG Version: 6.00 Build 0)  -->
<!DOCTYPE svg PUBLIC "-//W3C//DTD SVG 1.1//EN" "http://www.w3.org/Graphics/SVG/1.1/DTD/svg11.dtd">
<svg version="1.1" id="Capa_1" xmlns="http://www.w3.org/2000/svg" xmlns:xlink="http://www.w3.org/1999/xlink" x="0px" y="0px"
	 viewBox="0 0 289.499 289.499" style="enable-background:new 0 0 289.499 289.499;" xml:space="preserve">
<g>
	<path style="fill:#000002;" d="M112.947,141.692h63.832c6.065,0,11-4.935,11-11V76.445c0-6.065-4.935-11-11-11h-63.832
		c-6.065,0-11,4.935-11,11v54.247C101.947,136.757,106.882,141.692,112.947,141.692z M111.947,76.445c0-0.542,0.458-1,1-1h63.832
		c0.542,0,1,0.458,1,1v54.247c0,0.542-0.458,1-1,1h-63.832c-0.542,0-1-0.458-1-1V76.445z"/>
	<path style="fill:#000002;" d="M110.308,176.516h6.682c4.143,0,7.5-3.357,7.5-7.5s-3.357-7.5-7.5-7.5h-6.682
		c-4.143,0-7.5,3.357-7.5,7.5S106.166,176.516,110.308,176.516z"/>
	<path style="fill:#000002;" d="M180.959,161.516h-6.148c-4.143,0-7.5,3.357-7.5,7.5s3.357,7.5,7.5,7.5h6.148
		c4.143,0,7.5-3.357,7.5-7.5S185.101,161.516,180.959,161.516z"/>
	<path style="fill:#000002;" d="M120.844,185.145h-10.536c-4.143,0-7.5,3.357-7.5,7.5c0,4.143,3.357,7.5,7.5,7.5h10.536
		c4.143,0,7.5-3.357,7.5-7.5C128.344,188.503,124.987,185.145,120.844,185.145z"/>
	<path style="fill:#000002;" d="M150.901,185.145h-10.535c-4.143,0-7.5,3.357-7.5,7.5c0,4.143,3.357,7.5,7.5,7.5h10.535
		c4.143,0,7.5-3.357,7.5-7.5C158.401,188.503,155.044,185.145,150.901,185.145z"/>
	<path style="fill:#000002;" d="M180.959,185.145h-10.536c-4.143,0-7.5,3.357-7.5,7.5c0,4.143,3.357,7.5,7.5,7.5h10.536
		c4.143,0,7.5-3.357,7.5-7.5C188.459,188.503,185.101,185.145,180.959,185.145z"/>
	<path style="fill:#000002;" d="M120.844,210.347h-10.536c-4.143,0-7.5,3.357-7.5,7.5c0,4.143,3.357,7.5,7.5,7.5h10.536
		c4.143,0,7.5-3.357,7.5-7.5C128.344,213.705,124.987,210.347,120.844,210.347z"/>
	<path style="fill:#000002;" d="M150.901,210.347h-10.535c-4.143,0-7.5,3.357-7.5,7.5c0,4.143,3.357,7.5,7.5,7.5h10.535
		c4.143,0,7.5-3.357,7.5-7.5C158.401,213.705,155.044,210.347,150.901,210.347z"/>
	<path style="fill:#000002;" d="M180.959,210.347h-10.536c-4.143,0-7.5,3.357-7.5,7.5c0,4.143,3.357,7.5,7.5,7.5h10.536
		c4.143,0,7.5-3.357,7.5-7.5C188.459,213.705,185.101,210.347,180.959,210.347z"/>
	<path style="fill:#000002;" d="M286.911,258.521c-11.907-21.093-40.267-38.398-78.094-47.758v-96.368v-10.826V78.701
		c0-33.004-25.701-55.179-63.954-55.179c-20.685,0-37.689,6.494-48.955,17.669V9.376c0-4.143-3.357-7.5-7.5-7.5
		c-4.143,0-7.5,3.357-7.5,7.5v69.325v35.694v96.368c-36.155,8.953-63.966,25.352-76.598,45.261
		c-3.901,6.15-6.25,16.135-2.188,23.521c1.659,3.018,5.832,8.079,15.138,8.079h248.648c12.718,0,18.521-5.366,21.148-9.868
		C291.076,270.87,289.49,263.09,286.911,258.521z M144.863,38.522c22.583,0,48.954,10.522,48.954,40.179v24.868v10.826v115.953
		c0,1.355-1.145,2.5-2.5,2.5H98.408c-1.355,0-2.5-1.145-2.5-2.5V114.395V78.701C95.908,49.045,122.28,38.522,144.863,38.522z
		 M274.101,270.192c-0.889,1.522-3.952,2.432-8.194,2.432H17.259c-1.443,0-1.959-0.287-1.981-0.287h-0.001
		c-0.631-0.9-0.254-5.198,1.699-8.276c10.191-16.064,33.293-29.666,63.932-37.812v4.1c0,9.65,7.851,17.5,17.5,17.5h92.909
		c9.65,0,17.5-7.85,17.5-17.5v-4.097c31.593,8.435,55.645,23.014,65.031,39.642C274.502,267.051,274.784,269.023,274.101,270.192z"
		/>
	<path style="fill:#000002;" d="M145.634,149.171c-8.566,0-15.536,6.97-15.536,15.536s6.97,15.536,15.536,15.536
		c8.566,0,15.535-6.97,15.535-15.536S154.2,149.171,145.634,149.171z M145.634,170.243c-3.053,0-5.536-2.483-5.536-5.536
		c0-3.053,2.483-5.536,5.536-5.536c3.052,0,5.535,2.483,5.535,5.536C151.169,167.759,148.685,170.243,145.634,170.243z"/>
</g>
<g>
</g>
<g>
</g>
<g>
</g>
<g>
</g>
<g>
</g>
<g>
</g>
<g>
</g>
<g>
</g>
<g>
</g>
<g>
</g>
<g>
</g>
<g>
</g>
<g>
</g>
<g>
</g>
<g>
</g>
</svg>
